<svg xmlns="http://www.w3.org/2000/svg" viewBox="0 0 24 24" width="24" height="24" fill="currentColor" aria-hidden="true"><path d="M23.4 4.8c-.8.4-1.6.6-2.5.8.9-.5 1.6-1.4 1.9-2.4-.8.5-1.7.8-2.7 1-1.5-1.6-4-1.6-5.6-.1-.8.8-1.2 1.8-1.2 2.9 0 .2 0 .4.1.6-3.3-.2-6.3-1.7-8.3-4.2-.3.6-.5 1.3-.5 2 0 1.4.7 2.7 1.8 3.5-.7 0-1.3-.2-1.9-.5v.1c0 2 1.4 3.7 3.3 4.1-.3.1-.7.1-1 .1-.2 0-.5 0-.7-.1.5 1.6 2 2.8 3.7 2.8-1.4 1.1-3.2 1.7-5 1.7-.3 0-.6 0-.9-.1 1.8 1.2 3.9 1.8 6 1.8 7.2 0 11.2-6 11.2-11.2v-.5c.8-.6 1.5-1.3 2-2.1z"/></svg>

